<svg height="128" viewBox="0 0 128 128" width="128" xmlns="http://www.w3.org/2000/svg"><g stroke="#000" stroke-miterlimit="10"><g stroke-width="2"><path d="m30.75 35.12c-.76.71-.81 1.9-.1 2.67.71.76 1.9.81 2.67.1 17.26-15.96 44.29-15.96 61.55 0 .37.34.82.5 1.28.5.51 0 1.01-.2 1.38-.6.71-.77.66-1.96-.1-2.67-18.7-17.3-47.98-17.3-66.68 0z"/><path d="m106.62 22.54c-11.87-10.02-26.97-15.54-42.53-15.54s-30.81 5.57-42.7 15.68c-.8.68-.89 1.86-.22 2.65.37.44.9.67 1.44.67.43 0 .87-.15 1.22-.45 11.22-9.53 25.52-14.78 40.27-14.78s28.91 5.2 40.1 14.65c.79.67 1.98.57 2.65-.23s.57-1.98-.23-2.65z"/><path d="m64.08 37.17c-8.24 0-16.06 3.11-22.04 8.78-.75.72-.79 1.91-.08 2.67.72.75 1.91.79 2.67.08 5.28-5 12.18-7.75 19.45-7.75s14.18 2.75 19.45 7.75c.37.35.83.52 1.3.52.5 0 1-.2 1.37-.59.72-.75.68-1.95-.07-2.67-5.98-5.67-13.81-8.79-22.05-8.79z"/></g><path d="m84.59 74.8h-16.02l3.62-18.13c.19-.93-.28-1.86-1.14-2.27-.85-.4-1.88-.17-2.48.56l-26.77 32.95c-.5.61-.61 1.47-.26 2.18.34.72 1.06 1.17 1.86 1.17h16.02l-3.62 18.13c-.19.93.28 1.86 1.14 2.27.28.13.58.2.88.2.6 0 1.2-.27 1.6-.76l26.77-32.95c.5-.61.61-1.47.26-2.18-.35-.72-1.07-1.17-1.86-1.17z" fill="#fff533" stroke-width="4.5"/></g></svg>