<svg height="64" viewBox="0 0 160 64" width="160" xmlns="http://www.w3.org/2000/svg"><path d="m24.11 12.92c-.59-1.18-1.58-2.49-2.56-3.27-.85-.65-2.42-1.51-4.92-1.51-4.32 0-7.34 2.69-7.34 6.75 0 1.71.46 2.69 1.64 3.8 1.31 1.31 2.95 2.03 4.59 2.76l4.19 1.83c2.56 1.11 4.92 2.29 6.75 4.13 2.23 2.23 3.14 4.78 3.14 7.93 0 8.06-5.96 13.44-13.82 13.44-2.89 0-6.49-.59-9.5-3.54-2.16-2.09-3.47-5.11-4.07-7.73l4.72-1.31c.33 2.29 1.38 4.25 2.62 5.57 1.9 1.9 4.07 2.43 6.29 2.43 5.96 0 8.78-4.26 8.78-8.65 0-1.96-.59-3.67-2.16-5.11-1.25-1.18-2.95-1.96-5.25-3.01l-3.93-1.83c-1.71-.78-3.87-1.71-5.83-3.6-1.9-1.83-3.01-3.87-3.01-7.14 0-6.75 5.18-11.27 12.26-11.27 2.69 0 4.85.53 7.01 1.96 1.77 1.18 3.27 2.95 4.26 4.85l-3.87 2.56v-.03z"/><path d="m57.33 28.38c-2.49-3.14-6.1-4.07-8.52-4.07-5.05 0-9.63 3.54-9.63 10.15s4.72 10.09 9.57 10.09c2.82 0 6.29-1.25 8.78-4.25v5.63c-2.95 2.16-6.1 2.82-8.65 2.82-8.45 0-14.55-6.03-14.55-14.22s6.16-14.42 14.55-14.42c4.32 0 7.14 1.71 8.45 2.62v5.63z"/><path d="m65.44 20.79h4.72v2.95c.46-.72 2.49-3.6 6.16-3.6 1.44 0 3.01.53 4.19 1.11l-2.23 4.25c-1.05-.72-2.03-.92-2.75-.92-1.9 0-3.08.78-3.8 1.71-.78 1.05-1.58 2.89-1.58 7.34v14.35h-4.72v-27.19z"/><path d="m88.71 7.15c1.83 0 3.34 1.51 3.34 3.34s-1.51 3.34-3.34 3.34-3.34-1.51-3.34-3.34 1.51-3.34 3.34-3.34zm2.36 13.64v27.19h-4.72v-27.19z"/><path d="m104.1 59.5h-4.72v-38.71h4.72v3.8c3.21-4 7.34-4.45 9.3-4.45 8.52 0 13.24 7.08 13.24 14.42s-4.78 14.22-13.04 14.22c-4.39 0-7.47-1.96-9.5-4.59v15.32zm17.69-24.96c0-6.68-4.52-10.22-8.91-10.22s-9.04 3.6-9.04 10.15c0 5.57 3.54 10.09 9.11 10.09s8.85-4.59 8.85-10.03z"/><path d="m139.15 25.11v22.87h-4.72v-22.87h-2.89v-4.32h2.89v-9.83h4.72v9.83h4.72v4.32z"/><path d="m154.5 42.08c1.77 0 3.27 1.51 3.27 3.27s-1.51 3.27-3.27 3.27-3.27-1.51-3.27-3.27 1.51-3.27 3.27-3.27z"/></svg>