<svg height="128" viewBox="0 0 128 128" width="128" xmlns="http://www.w3.org/2000/svg"><path d="m34.58 14.53 9.9 15.69c-5.91 3.42-10.84 8.35-14.26 14.26l-15.69-9.9c4.91-8.24 11.81-15.14 20.05-20.05z" fill="#ffd41d"/><path d="m8.21 49.82 18.1 4.1c-.86 3.21-1.32 6.6-1.32 10.08s.46 6.87 1.32 10.08l-18.1 4.1c-1.15-4.54-1.76-9.29-1.76-14.18s.61-9.64 1.76-14.18z" fill="#ff1a1a"/><path d="m44.47 97.78-9.9 15.69c-8.23-4.91-15.14-11.81-20.05-20.05l15.69-9.9c3.42 5.91 8.35 10.84 14.26 14.26z" fill="#d50707"/><path d="m119.79 49.82c1.15 4.53 1.76 9.28 1.76 14.18s-.61 9.64-1.76 14.18l-18.1-4.09c.86-3.21 1.32-6.59 1.32-10.08s-.46-6.87-1.32-10.08l18.1-4.09z" fill="#1eb615"/><path d="m113.47 34.58-15.69 9.9c-3.42-5.91-8.35-10.84-14.26-14.26l9.9-15.69c8.23 4.91 15.14 11.81 20.05 20.05z" fill="#92e03f"/><path d="m97.78 83.52 15.69 9.9c-4.91 8.23-11.81 15.14-20.05 20.05l-9.9-15.69c5.91-3.42 10.84-8.35 14.26-14.26z" fill="#10bafc"/><path d="m74.08 101.69 4.1 18.1c-4.54 1.15-9.29 1.76-14.18 1.76s-9.64-.61-14.18-1.76l4.1-18.1c3.22.86 6.6 1.32 10.08 1.32 3.49 0 6.86-.46 10.08-1.32z" fill="#0084ff"/><path d="m78.18 8.21-4.1 18.1c-3.22-.86-6.6-1.32-10.08-1.32s-6.87.46-10.08 1.32l-4.1-18.1c4.54-1.15 9.29-1.76 14.18-1.76s9.64.61 14.18 1.76z" fill="#ffaf00"/><path d="m13.22 36.65 15.69 9.9c.39.25.85.38 1.31.38.2 0 .39-.02.59-.07.65-.16 1.2-.57 1.53-1.15 3.2-5.53 7.83-10.16 13.37-13.37.58-.33.99-.89 1.15-1.53.16-.65.05-1.33-.31-1.89l-9.9-15.69c-.71-1.12-2.18-1.48-3.32-.8-8.57 5.11-15.8 12.33-20.9 20.9-.68 1.14-.33 2.62.8 3.32zm20.59-18.75 7.28 11.54c-4.62 3.07-8.59 7.04-11.65 11.65l-11.54-7.28c4.15-6.32 9.59-11.76 15.91-15.91z"/><path d="m28.4 75.35c.34-.57.44-1.26.27-1.9-.82-3.07-1.24-6.25-1.24-9.45s.42-6.38 1.24-9.45c.17-.64.07-1.33-.27-1.9s-.91-.97-1.56-1.12l-18.1-4.1c-1.3-.29-2.59.5-2.91 1.79-1.22 4.8-1.83 9.78-1.83 14.78s.62 9.98 1.83 14.78c.28 1.11 1.28 1.85 2.37 1.85.18 0 .36-.02.54-.06l18.1-4.1c.65-.15 1.21-.55 1.56-1.12zm-5.04-3.11-13.31 3.01c-.76-3.68-1.15-7.46-1.15-11.25s.39-7.57 1.15-11.25l13.31 3.01c-.55 2.7-.82 5.46-.82 8.24s.28 5.53.82 8.24z"/><path d="m45.7 95.66c-5.54-3.21-10.16-7.83-13.36-13.37-.33-.58-.89-.99-1.53-1.15-.65-.16-1.33-.05-1.89.31l-15.69 9.9c-1.12.71-1.48 2.18-.8 3.32 5.1 8.57 12.33 15.79 20.9 20.9.39.23.82.35 1.25.35.81 0 1.61-.41 2.07-1.14l9.9-15.69c.36-.56.47-1.25.31-1.89-.16-.65-.57-1.2-1.15-1.53zm-11.89 14.44c-6.32-4.15-11.76-9.59-15.91-15.91l11.54-7.28c3.07 4.62 7.03 8.58 11.65 11.65z"/><path d="m122.17 49.22c-.33-1.29-1.62-2.08-2.91-1.79l-18.1 4.09c-.65.15-1.21.55-1.56 1.12-.34.57-.44 1.25-.27 1.9.82 3.07 1.23 6.25 1.23 9.45s-.42 6.38-1.23 9.45c-.17.64-.07 1.33.27 1.9s.91.97 1.56 1.12l18.1 4.09c.18.04.36.06.54.06 1.1 0 2.09-.74 2.37-1.85 1.22-4.81 1.83-9.78 1.83-14.78s-.62-9.97-1.83-14.78zm-4.22 26.03-13.31-3.01c.55-2.7.82-5.46.82-8.24s-.28-5.53-.82-8.24l13.31-3.01c.76 3.68 1.15 7.46 1.15 11.25s-.39 7.57-1.15 11.25z"/><path d="m82.3 32.34c5.54 3.21 10.16 7.83 13.37 13.37.33.58.89.99 1.53 1.15.19.05.39.07.59.07.46 0 .91-.13 1.31-.38l15.69-9.9c1.12-.71 1.48-2.18.8-3.33-5.11-8.57-12.34-15.8-20.9-20.9-1.14-.68-2.62-.33-3.33.8l-9.9 15.69c-.35.56-.47 1.25-.31 1.89s.57 1.2 1.15 1.53zm11.89-14.44c6.32 4.15 11.76 9.59 15.91 15.91l-11.54 7.28c-3.07-4.62-7.04-8.58-11.65-11.65z"/><path d="m114.78 91.35-15.69-9.9c-.56-.36-1.25-.47-1.89-.31-.65.16-1.2.57-1.53 1.15-3.21 5.54-7.83 10.16-13.37 13.37-.58.33-.99.89-1.15 1.53-.16.65-.05 1.33.31 1.89l9.9 15.69c.46.74 1.26 1.14 2.07 1.14.43 0 .86-.11 1.25-.35 8.57-5.11 15.79-12.33 20.9-20.9.68-1.14.33-2.62-.8-3.33zm-20.59 18.75-7.28-11.54c4.61-3.06 8.58-7.03 11.65-11.65l11.54 7.28c-4.15 6.32-9.59 11.76-15.91 15.91z"/><path d="m76.47 101.15c-.15-.65-.55-1.21-1.12-1.56-.57-.34-1.26-.44-1.9-.27-6.15 1.64-12.76 1.64-18.9 0-.64-.17-1.33-.07-1.9.27s-.98.91-1.12 1.56l-4.1 18.1c-.29 1.3.5 2.59 1.79 2.91 4.81 1.22 9.78 1.84 14.78 1.84s9.97-.62 14.78-1.84c1.29-.33 2.08-1.62 1.79-2.91zm-23.72 16.8 3.01-13.31c5.41 1.09 11.07 1.09 16.48 0l3.01 13.31c-7.37 1.53-15.13 1.53-22.5 0z"/><path d="m51.53 26.84c.15.65.55 1.21 1.12 1.56.39.23.82.35 1.27.35.21 0 .42-.03.63-.08 6.15-1.64 12.75-1.64 18.9 0 .64.17 1.33.07 1.9-.27s.97-.91 1.12-1.56l4.1-18.1c.29-1.3-.5-2.59-1.79-2.91-4.8-1.22-9.77-1.84-14.78-1.84s-9.98.62-14.78 1.83c-1.29.33-2.08 1.62-1.79 2.91l4.1 18.1zm23.72-16.79-3.01 13.31c-5.41-1.09-11.07-1.09-16.48 0l-3.01-13.31c7.36-1.53 15.14-1.53 22.51 0z"/><path d="m83.15 47.32c.63 0 1.25-.24 1.73-.72l3.79-3.79c.96-.96.96-2.51 0-3.46-.96-.96-2.51-.96-3.46 0l-3.79 3.79c-.96.96-.96 2.51 0 3.46.48.48 1.11.72 1.73.72z"/><path d="m76.8 47.76-12.79 12.79-21.21-21.21c-.96-.96-2.51-.96-3.46 0-.96.96-.96 2.51 0 3.46l22.22 22.22v28.07c0 1.35 1.1 2.45 2.45 2.45s2.45-1.1 2.45-2.45v-28.07l13.81-13.81c.96-.96.96-2.51 0-3.46-.96-.96-2.51-.96-3.46 0z"/></svg>