<svg height="64" viewBox="0 0 320 64" width="320" xmlns="http://www.w3.org/2000/svg"><circle cx="30.82" cy="32" fill="#e20a29" r="30"/><g fill="#fff"><path d="m38.63 10.05-7.81-7.8-29.75 29.75 29.75 29.75 7.81-7.8-21.95-21.95z"/><path d="m34.93 17.1h8.97v8.97h-8.97z" transform="matrix(.70710678 -.70710678 .70710678 .70710678 -3.72 34.19)"/><path d="m47.97 17.1h8.97v8.97h-8.97z" transform="matrix(.70710678 -.70710678 .70710678 .70710678 .1 43.42)"/></g><path d="m72.73 15.19c0-.77.13-1.45.4-2.04s.63-1.08 1.07-1.48c.43-.38.92-.66 1.46-.86.55-.2 1.1-.29 1.65-.29s1.1.1 1.65.29c.55.2 1.04.48 1.49.86.43.39.78.88 1.05 1.48.27.59.4 1.27.4 2.04v.97h-2.74v-.97c0-.66-.18-1.15-.55-1.46s-.8-.47-1.3-.47-.94.16-1.3.47c-.37.31-.55.8-.55 1.46v10.09c0 .66.18 1.15.55 1.46s.8.47 1.3.47.93-.16 1.3-.47.55-.8.55-1.46v-3.59h-2.17v-2.42h4.91v6.01c0 .8-.13 1.49-.4 2.07-.27.57-.62 1.05-1.05 1.42-.45.39-.94.69-1.49.89s-1.1.29-1.65.29-1.1-.1-1.65-.29c-.55-.2-1.03-.49-1.46-.89-.45-.38-.8-.85-1.07-1.42s-.4-1.26-.4-2.07z"/><path d="m86.19 29.78v-19.1h4.4c3.22 0 4.83 1.87 4.83 5.61 0 1.13-.17 2.08-.52 2.87s-.96 1.42-1.84 1.91l2.95 8.72h-2.9l-2.55-8.15h-1.64v8.15h-2.74zm2.74-16.52v5.96h1.56c.48 0 .87-.07 1.15-.2.29-.13.51-.33.67-.58.14-.25.24-.56.29-.93s.08-.79.08-1.27-.03-.91-.08-1.27-.16-.68-.32-.95c-.34-.5-.98-.75-1.93-.75h-1.42z"/><path d="m99.5 29.78v-19.1h8.15v2.58h-5.42v5.61h4.72v2.58h-4.72v5.61h5.42v2.74h-8.15z"/><path d="m110.07 29.78 4.27-19.1h2.28l4.27 19.1h-2.74l-.8-4.1h-3.73l-.81 4.1zm6.75-6.68-1.34-6.92h-.05l-1.34 6.92h2.74z"/><path d="m124.42 29.78v-16.52h-3.17v-2.58h9.07v2.58h-3.17v16.52h-2.74z"/><path d="m140.27 29.78v-19.1h4.05c1.57 0 2.77.43 3.58 1.29s1.22 2.07 1.22 3.65v8.93c0 1.79-.43 3.11-1.3 3.96s-2.12 1.27-3.74 1.27zm2.74-16.52v13.95h1.26c.77 0 1.31-.19 1.64-.58.32-.38.48-.99.48-1.81v-9.2c0-.75-.15-1.33-.46-1.74-.3-.41-.86-.62-1.66-.62z"/><path d="m153.57 29.78v-19.1h8.15v2.58h-5.42v5.61h4.72v2.58h-4.72v5.61h5.42v2.74h-8.15z"/><path d="m174.23 16.18h-2.74v-.62c0-.63-.15-1.17-.44-1.62s-.79-.68-1.49-.68c-.38 0-.68.07-.91.21s-.42.32-.56.54c-.14.23-.24.5-.29.79s-.08.6-.08.93c0 .38.01.69.04.94s.09.47.2.67.26.37.47.51.49.29.84.43l2.09.83c.61.23 1.1.5 1.48.82.38.31.67.68.88 1.09.2.43.33.92.4 1.46s.11 1.17.11 1.86c0 .8-.08 1.55-.24 2.24s-.42 1.27-.78 1.76c-.38.5-.87.89-1.47 1.18-.61.29-1.35.43-2.23.43-.66 0-1.28-.12-1.85-.35s-1.06-.55-1.47-.97c-.41-.41-.74-.89-.98-1.44-.24-.54-.36-1.14-.36-1.78v-1.02h2.74v.86c0 .5.15.95.44 1.35s.79.6 1.49.6c.46 0 .83-.07 1.09-.2s.46-.33.6-.58.23-.55.25-.9c.03-.35.04-.74.04-1.17 0-.5-.02-.91-.05-1.23-.04-.32-.11-.58-.21-.78-.13-.2-.29-.36-.5-.48s-.48-.26-.82-.4l-1.96-.8c-1.18-.48-1.97-1.12-2.37-1.92s-.6-1.79-.6-2.99c0-.71.1-1.39.3-2.04.2-.64.49-1.2.88-1.66.38-.46.85-.83 1.44-1.11.58-.28 1.27-.42 2.08-.42.68 0 1.3.12 1.86.38.56.25 1.05.58 1.46.99.82.86 1.23 1.84 1.23 2.95v1.34z"/><path d="m178.23 29.78v-19.1h2.74v19.1z"/><path d="m185.33 15.19c0-.77.13-1.45.4-2.04s.62-1.08 1.07-1.48c.43-.38.92-.66 1.46-.86.55-.2 1.1-.29 1.65-.29s1.1.1 1.65.29c.54.2 1.04.48 1.49.86.43.39.78.88 1.05 1.48.27.59.4 1.27.4 2.04v.97h-2.74v-.97c0-.66-.18-1.15-.55-1.46s-.8-.47-1.3-.47-.93.16-1.3.47-.55.8-.55 1.46v10.09c0 .66.18 1.15.55 1.46s.8.47 1.3.47.93-.16 1.3-.47.55-.8.55-1.46v-3.59h-2.17v-2.42h4.91v6.01c0 .8-.13 1.49-.4 2.07-.27.57-.62 1.05-1.05 1.42-.45.39-.94.69-1.49.89s-1.1.29-1.65.29-1.1-.1-1.65-.29c-.54-.2-1.03-.49-1.46-.89-.45-.38-.8-.85-1.07-1.42s-.4-1.26-.4-2.07z"/><path d="m198.69 29.78v-19.1h2.63l4.13 11.51h.05v-11.51h2.74v19.1h-2.58l-4.18-11.48h-.05v11.48z"/><path d="m219.45 29.78v-19.1h4.1c.75 0 1.41.1 1.99.3.57.2 1.09.54 1.56 1.05s.79 1.09.97 1.76.27 1.58.27 2.72c0 .86-.05 1.58-.15 2.17s-.31 1.14-.63 1.66c-.38.63-.88 1.11-1.5 1.46s-1.45.52-2.47.52h-1.4v7.46zm2.74-16.52v6.49h1.31c.55 0 .98-.08 1.29-.24.3-.16.53-.38.67-.67.14-.27.23-.6.25-.99.03-.39.04-.83.04-1.31 0-.45 0-.87-.03-1.27s-.1-.76-.24-1.06-.36-.54-.64-.7c-.29-.16-.7-.24-1.23-.24h-1.42z"/><path d="m232.25 29.78v-19.1h4.4c3.22 0 4.83 1.87 4.83 5.61 0 1.13-.17 2.08-.52 2.87s-.96 1.42-1.84 1.91l2.95 8.72h-2.9l-2.55-8.15h-1.64v8.15h-2.74zm2.73-16.52v5.96h1.56c.48 0 .87-.07 1.15-.2.29-.13.51-.33.67-.58.14-.25.24-.56.29-.93s.08-.79.08-1.27-.03-.91-.08-1.27c-.05-.37-.16-.68-.32-.95-.34-.5-.98-.75-1.93-.75h-1.42z"/><path d="m245.39 15.19c0-.77.13-1.45.4-2.04s.62-1.08 1.07-1.48c.43-.38.92-.66 1.46-.86.55-.2 1.1-.29 1.65-.29s1.1.1 1.65.29c.54.2 1.04.48 1.49.86.43.39.78.88 1.05 1.48.27.59.4 1.27.4 2.04v10.09c0 .8-.13 1.49-.4 2.07-.27.57-.62 1.05-1.05 1.42-.45.39-.94.69-1.49.89s-1.1.29-1.65.29-1.1-.1-1.65-.29c-.54-.2-1.03-.49-1.46-.89-.45-.38-.8-.85-1.07-1.42s-.4-1.26-.4-2.07zm2.74 10.09c0 .66.18 1.15.55 1.46s.8.47 1.3.47.93-.16 1.3-.47.55-.8.55-1.46v-10.09c0-.66-.18-1.15-.55-1.46s-.8-.47-1.3-.47-.93.16-1.3.47-.55.8-.55 1.46z"/><path d="m258.86 29.78v-19.1h4.05c1.57 0 2.77.43 3.58 1.29s1.22 2.07 1.22 3.65v8.93c0 1.79-.43 3.11-1.3 3.96s-2.12 1.27-3.74 1.27zm2.73-16.52v13.95h1.26c.77 0 1.31-.19 1.64-.58.32-.38.48-.99.48-1.81v-9.2c0-.75-.15-1.33-.46-1.74-.3-.41-.86-.62-1.66-.62z"/><path d="m281.02 10.68v14.81c0 .63-.11 1.2-.33 1.73s-.54 1-.95 1.41-.89.73-1.42.97c-.54.23-1.11.35-1.72.35s-1.18-.12-1.7-.35c-.53-.23-1-.55-1.41-.97s-.73-.88-.96-1.41-.35-1.1-.35-1.73v-14.81h2.74v14.54c0 .68.16 1.18.48 1.5s.72.48 1.21.48.88-.16 1.21-.48c.32-.32.48-.82.48-1.5v-14.54h2.74z"/><path d="m294.16 24.34v1.18c0 .59-.11 1.15-.33 1.68s-.53 1-.93 1.41c-.39.41-.85.74-1.38.98s-1.1.36-1.7.36c-.52 0-1.05-.07-1.58-.21-.54-.14-1.02-.39-1.45-.75s-.78-.82-1.06-1.38-.42-1.28-.42-2.16v-10.52c0-.62.11-1.21.32-1.74.21-.54.52-1 .91-1.39s.86-.7 1.41-.93c.55-.22 1.15-.33 1.81-.33 1.29 0 2.33.42 3.14 1.26.39.41.7.9.93 1.46s.33 1.18.33 1.84v1.07h-2.74v-.91c0-.54-.15-1-.46-1.39-.3-.39-.72-.59-1.23-.59-.68 0-1.13.21-1.35.63s-.34.95-.34 1.6v9.76c0 .55.12 1.02.36 1.39.24.38.67.56 1.3.56.18 0 .37-.03.58-.09s.4-.17.58-.31c.16-.14.29-.34.4-.59s.16-.56.16-.94v-.94h2.74z"/><path d="m300.06 29.78v-16.52h-3.17v-2.58h9.07v2.58h-3.17v16.52h-2.74z"/><path d="m317.9 16.18h-2.74v-.62c0-.63-.15-1.17-.44-1.62s-.79-.68-1.49-.68c-.38 0-.68.07-.91.21s-.42.32-.56.54c-.14.23-.24.5-.29.79s-.08.6-.08.93c0 .38.01.69.04.94s.09.47.2.67.26.37.47.51.49.29.84.43l2.09.83c.61.23 1.1.5 1.48.82.38.31.67.68.88 1.09.2.43.33.92.4 1.46s.11 1.17.11 1.86c0 .8-.08 1.55-.24 2.24s-.42 1.27-.78 1.76c-.38.5-.87.89-1.47 1.18-.61.29-1.35.43-2.23.43-.66 0-1.28-.12-1.85-.35s-1.06-.55-1.47-.97c-.41-.41-.74-.89-.98-1.44-.24-.54-.36-1.14-.36-1.78v-1.02h2.74v.86c0 .5.15.95.44 1.35s.79.6 1.49.6c.46 0 .83-.07 1.09-.2s.46-.33.6-.58.23-.55.25-.9c.03-.35.04-.74.04-1.17 0-.5-.02-.91-.05-1.23-.04-.32-.11-.58-.21-.78-.13-.2-.29-.36-.5-.48s-.48-.26-.82-.4l-1.96-.8c-1.18-.48-1.97-1.12-2.37-1.92s-.6-1.79-.6-2.99c0-.71.1-1.39.3-2.04.2-.64.49-1.2.88-1.66.38-.46.85-.83 1.44-1.11.58-.28 1.27-.42 2.08-.42.68 0 1.3.12 1.86.38.56.25 1.05.58 1.46.99.82.86 1.23 1.84 1.23 2.95v1.34z"/><path d="m74.44 43.3c-.32-.81-.41-1.02-.69-1.55-.26-.02-.65-.02-.86-.04l-.53-2.33c.56.02 1.29.05 2.36.05 3.67 0 8.9-.3 12.46-.93l1.2 2.27c-.56.12-.67.12-1.66.26l.53.07c-.49 1.22-.6 1.46-.99 2.18h2.1v4.86h-2.24v.67c-.41.62-1.09 1.71-2.71 3.03 2.5.56 4.37.67 5.48.71l-1.09 2.82c-3.9-.48-6.08-1.29-7.38-1.78-1.6.63-3.77 1.34-7.4 1.73l-1.06-2.77c1.45-.05 3.35-.18 5.36-.69-1.34-1-1.87-1.73-2.24-2.24l2.13-.81h-2.63v-.67h-2.17v-4.86h2.03zm11.24 2.29h-10.63v.97h10.63zm-6.49-2.29c-.04-.09-.32-1.02-.62-1.64-.46.02-1.3.05-1.99.05.02.07.46 1.04.67 1.59zm-1.46 5.53c.28.32 1.09 1.13 2.54 1.92 1.27-.76 1.96-1.48 2.4-1.92h-4.93zm5.69-5.53c.16-.3.42-.78.85-1.99-.63.05-1.85.14-2.89.21.41 1.18.44 1.32.56 1.78z"/><path d="m106.9 55.49c-3.6-.33-5.3-1.11-6.06-1.45l1.18-1.34h-5.55l1.16 1.27c-2.04 1.04-5.02 1.37-6.13 1.5l-.74-2.19c.72-.05 2.17-.14 4.09-.58h-2.48v-6.61h13.75v6.61h-2.45c1.3.35 2.45.48 3.98.58l-.74 2.2zm-1.94-9.97h-11.42v-1.34h-2.22v-4.09h2.17c-.12-.23-.35-.63-.6-.99l2.78-.48c.26.42.49.93.7 1.46h1.59v-1.48h2.68v1.48h1.62c.32-.58.56-1.38.6-1.48l2.78.44c-.14.35-.21.49-.53 1.04h2.1v4.09h-2.26v1.34zm-.35-3.04v-.62h-10.72v.62zm-1.1 4.83h-8.51v.62h8.51zm0 1.71h-8.51v.62h8.51zm0 1.66h-8.51v.62h8.51zm-1.05-7.07h-6.43v.72h6.43z"/><path d="m120.75 40.49 2.93 3.47c-.49 2.54-1.29 4.69-2.93 6.45-1.71 1.83-4.32 3.38-7.74 4.05l-1.27-2.64c7.37-1.36 8.5-5.2 9.02-8.55h-10.13v-2.78zm5.99-.03c0 1.32-1.08 2.4-2.4 2.4s-2.4-1.08-2.4-2.4 1.07-2.4 2.4-2.4 2.4 1.06 2.4 2.4zm-3.59 0c0 .67.53 1.2 1.2 1.2.63 0 1.2-.51 1.2-1.2s-.56-1.2-1.2-1.2c-.67 0-1.2.55-1.2 1.2z"/><path d="m143.41 40.48v13.18h-13.64v-13.18zm-2.85 2.64h-7.93v7.91h7.93z"/><path d="m148.03 52.21c3.84-.72 5.97-2.61 6.84-3.38-2.04-1.57-3.23-2.2-4.18-2.68-.69.63-1.16 1.02-1.89 1.48l-1.85-2.13c2.33-1.39 3.61-3.12 4.48-5.11h7.03l2.42 3.03c-.6 2.47-2.4 9.15-11.39 11.33zm5.27-9.27c-.49.76-.71 1.02-1 1.41 1.81.79 3.19 1.62 4.25 2.43.56-.9 1.06-1.87 1.59-3.84h-4.83zm6.61-4.14c.88.97 1.41 1.82 2.13 3.1l-1.2.9c-.67-1.32-1.08-2.01-2.06-3.17zm2.22-.74c.88.99 1.3 1.71 2.12 3.14l-1.22.88c-.65-1.34-1.11-2.06-2.03-3.19z"/><path d="m167.09 52.09c3.35-.55 9.15-2.36 10.29-9.41h-5.06c-1 1.55-2.31 3.12-4.37 4.41l-1.8-2.06c2.17-1.32 3.46-3.01 4.34-4.93h10.13c-.69 10.66-7.35 13.62-12.39 14.59l-1.15-2.59z"/><path d="m195.29 49.99c-1.71-1.15-3.75-2.43-6.68-3.56v8.02h-3.03v-15.03h3.03v4.07c4.28 1.36 6.96 2.87 8.18 3.58l-1.5 2.93z"/></svg>