<svg height="128" viewBox="0 0 128 128" width="128" xmlns="http://www.w3.org/2000/svg"><path d="m65.57 42.77c-.34-.54-.93-.87-1.57-.87s-1.23.33-1.57.87l-11.22 17.95c-.6.97-1.15 1.8-1.38 2.73-.19.77-.21 1.57-.06 2.34.18.95.68 1.8 1.24 2.8l4.61 8.29v4.4c0 .49 0 .96.03 1.36.03.42.12.92.37 1.42.35.7.92 1.26 1.61 1.61.5.26 1 .34 1.42.37.4.03.88.03 1.36.03h7.15c.49 0 .96 0 1.36-.03.42-.03.92-.12 1.42-.37.7-.35 1.26-.92 1.61-1.61.26-.5.34-1 .37-1.42.03-.4.03-.88.03-1.36v-4.4s4.61-8.29 4.61-8.29c.55-1 1.06-1.85 1.24-2.8.15-.78.13-1.58-.06-2.34-.23-.94-.77-1.77-1.38-2.73l-11.22-17.95m-1.54 17.04s0 0 0 0c.24 0 .47.09.65.27.36.36.36.95 0 1.31s-.95.36-1.31 0-.36-.95 0-1.31c.18-.18.42-.27.65-.27zm4.67 22.55s0 .02 0 .02h-.02c-.22.02-.52.02-1.06.02h-7.15c-.55 0-.85 0-1.06-.02h-.02v-.02c-.02-.22-.02-.52-.02-1.06v-3.03s9.37 0 9.37 0v3.03c0 .55 0 .85-.02 1.06zm5.92-17.25c-.04.22-.16.48-.84 1.7l-4.31 7.76h-10.89s-4.31-7.76-4.31-7.76c-.68-1.22-.79-1.47-.84-1.7-.05-.26-.04-.53.02-.78.05-.22.18-.47.92-1.65l7.8-12.48v6.31c-.51.22-1 .55-1.42.97-1.8 1.8-1.8 4.73 0 6.53s4.73 1.8 6.53 0 1.8-4.73 0-6.53c-.42-.42-.9-.74-1.42-.97v-6.31s7.8 12.48 7.8 12.48c.74 1.18.87 1.43.92 1.65.06.26.07.52.02.78z"/><path d="m18.64 41.37h5.6v-17.13h17.13v-5.6h-22.73z"/><path d="m103.76 41.37h5.6v-22.73h-22.73v5.6h17.13z"/><path d="m103.76 103.76h-17.13v5.6h22.73v-22.73h-5.6z"/><path d="m24.24 86.63h-5.6v22.73h22.73v-5.6h-17.13z"/><path d="m61.2 4h5.61v26.58h-5.61z"/><path d="m61.2 97.43h5.61v26.58h-5.61z"/><path d="m97.43 61.2h26.57v5.6h-26.57z"/><path d="m4 61.2h26.57v5.6h-26.57z"/></svg>