<svg height="60" viewBox="0 0 40 60" width="40" xmlns="http://www.w3.org/2000/svg"><path d="m0 71.26v-23.09m20-1.7-11.47 6.62v13.24l11.47 6.62 11.47-6.62v-13.24zm0-32.95 11.47-6.62v-13.23l-11.47-6.62-11.47 6.62v13.23zm8.53 4.93v13.24l11.47 6.62 11.47-6.62v-13.24l-11.47-6.62zm-8.53 18.17-20 11.55m0 0v23.09m0 0 20 11.55 20-11.55v-23.09m0 0-20-11.55m0 0 20 11.55m-40-36.34-11.47 6.62v13.24l11.47 6.62 11.47-6.62v-13.24l-11.47-6.62v-23.09l20-11.55 20 11.55v23.09m-20 24.79v-23.09" fill="none" stroke="#ebf7fd"/></svg>